<mxfile host="Electron" agent="Mozilla/5.0 (Windows NT 10.0; Win64; x64) AppleWebKit/537.36 (KHTML, like Gecko) draw.io/26.2.2 Chrome/134.0.6998.178 Electron/35.1.2 Safari/537.36" version="26.2.2" pages="2">
  <diagram name="PoC" id="mfZ6MtJPtos0Vky1uWsE">
    <mxGraphModel dx="1182" dy="687" grid="1" gridSize="10" guides="1" tooltips="1" connect="1" arrows="1" fold="1" page="1" pageScale="1" pageWidth="1169" pageHeight="827" math="0" shadow="0">
      <root>
        <mxCell id="0" />
        <mxCell id="1" parent="0" />
        <mxCell id="V3k8hdB-4xPJ3LRUWkMO-3" value="Object Storage" style="rounded=0;whiteSpace=wrap;html=1;" vertex="1" parent="1">
          <mxGeometry x="310" y="207" width="60" height="40" as="geometry" />
        </mxCell>
        <mxCell id="V3k8hdB-4xPJ3LRUWkMO-14" style="edgeStyle=orthogonalEdgeStyle;rounded=0;orthogonalLoop=1;jettySize=auto;html=1;entryX=0;entryY=0.75;entryDx=0;entryDy=0;exitX=1.008;exitY=0.716;exitDx=0;exitDy=0;exitPerimeter=0;" edge="1" parent="1" source="V3k8hdB-4xPJ3LRUWkMO-9" target="V3k8hdB-4xPJ3LRUWkMO-13">
          <mxGeometry relative="1" as="geometry">
            <Array as="points">
              <mxPoint x="510" y="235" />
            </Array>
          </mxGeometry>
        </mxCell>
        <mxCell id="V3k8hdB-4xPJ3LRUWkMO-16" value="Prediction" style="edgeStyle=orthogonalEdgeStyle;rounded=0;orthogonalLoop=1;jettySize=auto;html=1;exitX=0;exitY=0.25;exitDx=0;exitDy=0;entryX=1;entryY=0;entryDx=0;entryDy=27.5;entryPerimeter=0;" edge="1" parent="1" source="V3k8hdB-4xPJ3LRUWkMO-13" target="V3k8hdB-4xPJ3LRUWkMO-9">
          <mxGeometry relative="1" as="geometry" />
        </mxCell>
        <mxCell id="V3k8hdB-4xPJ3LRUWkMO-9" value="ADW" style="shape=cylinder3;whiteSpace=wrap;html=1;boundedLbl=1;backgroundOutline=1;size=9.333356584821388;" vertex="1" parent="1">
          <mxGeometry x="455" y="189" width="50" height="65" as="geometry" />
        </mxCell>
        <mxCell id="V3k8hdB-4xPJ3LRUWkMO-11" value="One-time load" style="text;html=1;align=center;verticalAlign=middle;resizable=0;points=[];autosize=1;strokeColor=none;fillColor=none;" vertex="1" parent="1">
          <mxGeometry x="207" y="202" width="100" height="30" as="geometry" />
        </mxCell>
        <mxCell id="V3k8hdB-4xPJ3LRUWkMO-13" value="Data&amp;nbsp;&lt;div&gt;Science&lt;/div&gt;" style="rounded=0;whiteSpace=wrap;html=1;" vertex="1" parent="1">
          <mxGeometry x="600" y="205" width="60" height="40" as="geometry" />
        </mxCell>
        <mxCell id="V3k8hdB-4xPJ3LRUWkMO-19" style="edgeStyle=orthogonalEdgeStyle;rounded=0;orthogonalLoop=1;jettySize=auto;html=1;startArrow=classic;startFill=1;" edge="1" parent="1" source="V3k8hdB-4xPJ3LRUWkMO-15" target="V3k8hdB-4xPJ3LRUWkMO-9">
          <mxGeometry relative="1" as="geometry" />
        </mxCell>
        <mxCell id="V3k8hdB-4xPJ3LRUWkMO-15" value="APEX (ADW)" style="whiteSpace=wrap;html=1;" vertex="1" parent="1">
          <mxGeometry x="440" y="125" width="80" height="30" as="geometry" />
        </mxCell>
        <mxCell id="V3k8hdB-4xPJ3LRUWkMO-18" value="DB Pump" style="edgeStyle=orthogonalEdgeStyle;rounded=0;orthogonalLoop=1;jettySize=auto;html=1;entryX=0;entryY=0.58;entryDx=0;entryDy=0;entryPerimeter=0;" edge="1" parent="1" source="V3k8hdB-4xPJ3LRUWkMO-3" target="V3k8hdB-4xPJ3LRUWkMO-9">
          <mxGeometry relative="1" as="geometry" />
        </mxCell>
        <mxCell id="V3k8hdB-4xPJ3LRUWkMO-20" value="" style="endArrow=none;dashed=1;html=1;rounded=0;" edge="1" parent="1">
          <mxGeometry width="50" height="50" relative="1" as="geometry">
            <mxPoint x="212" y="350" as="sourcePoint" />
            <mxPoint x="212" y="110" as="targetPoint" />
          </mxGeometry>
        </mxCell>
        <mxCell id="SaPmCupNO6klSTiere6l-2" value="Table Dumps" style="edgeStyle=orthogonalEdgeStyle;rounded=0;orthogonalLoop=1;jettySize=auto;html=1;entryX=0;entryY=0.5;entryDx=0;entryDy=0;" edge="1" parent="1" source="SaPmCupNO6klSTiere6l-1" target="V3k8hdB-4xPJ3LRUWkMO-3">
          <mxGeometry x="0.1429" y="-10" relative="1" as="geometry">
            <mxPoint x="250" y="287" as="targetPoint" />
            <mxPoint as="offset" />
          </mxGeometry>
        </mxCell>
        <mxCell id="SaPmCupNO6klSTiere6l-1" value="On-Prem DB" style="shape=cylinder3;whiteSpace=wrap;html=1;boundedLbl=1;backgroundOutline=1;size=8.523856026785722;" vertex="1" parent="1">
          <mxGeometry x="134" y="192" width="60" height="70" as="geometry" />
        </mxCell>
        <mxCell id="SaPmCupNO6klSTiere6l-4" style="edgeStyle=orthogonalEdgeStyle;rounded=0;orthogonalLoop=1;jettySize=auto;html=1;entryX=0.5;entryY=0;entryDx=0;entryDy=0;" edge="1" parent="1" source="SaPmCupNO6klSTiere6l-3" target="V3k8hdB-4xPJ3LRUWkMO-15">
          <mxGeometry relative="1" as="geometry" />
        </mxCell>
        <mxCell id="SaPmCupNO6klSTiere6l-3" value="" style="shape=umlActor;verticalLabelPosition=bottom;verticalAlign=top;html=1;outlineConnect=0;" vertex="1" parent="1">
          <mxGeometry x="473" y="73" width="15" height="20" as="geometry" />
        </mxCell>
      </root>
    </mxGraphModel>
  </diagram>
  <diagram id="gjZkQgb9ZMGYJCDAvPaj" name="Prod">
    <mxGraphModel dx="1182" dy="687" grid="1" gridSize="10" guides="1" tooltips="1" connect="1" arrows="1" fold="1" page="1" pageScale="1" pageWidth="1169" pageHeight="827" math="0" shadow="0">
      <root>
        <mxCell id="0" />
        <mxCell id="1" parent="0" />
        <mxCell id="MiylKLkYFwcYR30CPr-X-1" value="Object Storage" style="rounded=0;whiteSpace=wrap;html=1;" vertex="1" parent="1">
          <mxGeometry x="296" y="297" width="60" height="40" as="geometry" />
        </mxCell>
        <mxCell id="MiylKLkYFwcYR30CPr-X-2" style="edgeStyle=orthogonalEdgeStyle;rounded=0;orthogonalLoop=1;jettySize=auto;html=1;entryX=0;entryY=0.75;entryDx=0;entryDy=0;exitX=1.008;exitY=0.716;exitDx=0;exitDy=0;exitPerimeter=0;" edge="1" parent="1" source="MiylKLkYFwcYR30CPr-X-4" target="MiylKLkYFwcYR30CPr-X-6">
          <mxGeometry relative="1" as="geometry">
            <Array as="points">
              <mxPoint x="564" y="322" />
            </Array>
          </mxGeometry>
        </mxCell>
        <mxCell id="MiylKLkYFwcYR30CPr-X-3" value="Prediction" style="edgeStyle=orthogonalEdgeStyle;rounded=0;orthogonalLoop=1;jettySize=auto;html=1;exitX=0;exitY=0.25;exitDx=0;exitDy=0;entryX=1;entryY=0;entryDx=0;entryDy=27.5;entryPerimeter=0;" edge="1" parent="1" source="MiylKLkYFwcYR30CPr-X-6" target="MiylKLkYFwcYR30CPr-X-4">
          <mxGeometry relative="1" as="geometry" />
        </mxCell>
        <mxCell id="MiylKLkYFwcYR30CPr-X-4" value="ADW" style="shape=cylinder3;whiteSpace=wrap;html=1;boundedLbl=1;backgroundOutline=1;size=9.333356584821388;" vertex="1" parent="1">
          <mxGeometry x="509" y="276" width="50" height="65" as="geometry" />
        </mxCell>
        <mxCell id="MiylKLkYFwcYR30CPr-X-5" value="One-time load" style="text;html=1;align=center;verticalAlign=middle;resizable=0;points=[];autosize=1;strokeColor=none;fillColor=none;" vertex="1" parent="1">
          <mxGeometry x="193" y="292" width="100" height="30" as="geometry" />
        </mxCell>
        <mxCell id="MiylKLkYFwcYR30CPr-X-6" value="Data&amp;nbsp;&lt;div&gt;Science&lt;/div&gt;" style="rounded=0;whiteSpace=wrap;html=1;" vertex="1" parent="1">
          <mxGeometry x="654" y="292" width="60" height="40" as="geometry" />
        </mxCell>
        <mxCell id="MiylKLkYFwcYR30CPr-X-7" style="edgeStyle=orthogonalEdgeStyle;rounded=0;orthogonalLoop=1;jettySize=auto;html=1;startArrow=classic;startFill=1;" edge="1" parent="1" source="MiylKLkYFwcYR30CPr-X-8" target="MiylKLkYFwcYR30CPr-X-4">
          <mxGeometry relative="1" as="geometry" />
        </mxCell>
        <mxCell id="MiylKLkYFwcYR30CPr-X-8" value="APEX (ADW)" style="whiteSpace=wrap;html=1;" vertex="1" parent="1">
          <mxGeometry x="494" y="212" width="80" height="30" as="geometry" />
        </mxCell>
        <mxCell id="MiylKLkYFwcYR30CPr-X-9" value="" style="edgeStyle=orthogonalEdgeStyle;rounded=0;orthogonalLoop=1;jettySize=auto;html=1;entryX=0;entryY=0.58;entryDx=0;entryDy=0;entryPerimeter=0;" edge="1" parent="1" source="MiylKLkYFwcYR30CPr-X-15" target="MiylKLkYFwcYR30CPr-X-4">
          <mxGeometry relative="1" as="geometry" />
        </mxCell>
        <mxCell id="MiylKLkYFwcYR30CPr-X-10" value="" style="endArrow=none;dashed=1;html=1;rounded=0;" edge="1" parent="1">
          <mxGeometry width="50" height="50" relative="1" as="geometry">
            <mxPoint x="198" y="437" as="sourcePoint" />
            <mxPoint x="198" y="197" as="targetPoint" />
          </mxGeometry>
        </mxCell>
        <mxCell id="MiylKLkYFwcYR30CPr-X-11" value="Table Dumps" style="edgeStyle=orthogonalEdgeStyle;rounded=0;orthogonalLoop=1;jettySize=auto;html=1;entryX=0;entryY=0.5;entryDx=0;entryDy=0;dashed=1;" edge="1" parent="1" source="MiylKLkYFwcYR30CPr-X-12" target="MiylKLkYFwcYR30CPr-X-1">
          <mxGeometry x="0.1429" y="-10" relative="1" as="geometry">
            <mxPoint x="236" y="377" as="targetPoint" />
            <mxPoint as="offset" />
          </mxGeometry>
        </mxCell>
        <mxCell id="MiylKLkYFwcYR30CPr-X-17" value="Recurring Load" style="edgeStyle=orthogonalEdgeStyle;rounded=0;orthogonalLoop=1;jettySize=auto;html=1;entryX=0.5;entryY=0;entryDx=0;entryDy=0;exitX=0.5;exitY=0;exitDx=0;exitDy=0;exitPerimeter=0;" edge="1" parent="1" source="MiylKLkYFwcYR30CPr-X-12" target="MiylKLkYFwcYR30CPr-X-15">
          <mxGeometry relative="1" as="geometry" />
        </mxCell>
        <mxCell id="MiylKLkYFwcYR30CPr-X-12" value="On-Prem DB" style="shape=cylinder3;whiteSpace=wrap;html=1;boundedLbl=1;backgroundOutline=1;size=8.523856026785722;" vertex="1" parent="1">
          <mxGeometry x="120" y="282" width="60" height="70" as="geometry" />
        </mxCell>
        <mxCell id="MiylKLkYFwcYR30CPr-X-13" style="edgeStyle=orthogonalEdgeStyle;rounded=0;orthogonalLoop=1;jettySize=auto;html=1;entryX=0.5;entryY=0;entryDx=0;entryDy=0;" edge="1" parent="1" source="MiylKLkYFwcYR30CPr-X-14" target="MiylKLkYFwcYR30CPr-X-8">
          <mxGeometry relative="1" as="geometry" />
        </mxCell>
        <mxCell id="MiylKLkYFwcYR30CPr-X-14" value="" style="shape=umlActor;verticalLabelPosition=bottom;verticalAlign=top;html=1;outlineConnect=0;" vertex="1" parent="1">
          <mxGeometry x="527" y="160" width="15" height="20" as="geometry" />
        </mxCell>
        <mxCell id="MiylKLkYFwcYR30CPr-X-16" value="" style="edgeStyle=orthogonalEdgeStyle;rounded=0;orthogonalLoop=1;jettySize=auto;html=1;entryX=0;entryY=0.58;entryDx=0;entryDy=0;entryPerimeter=0;dashed=1;" edge="1" parent="1" source="MiylKLkYFwcYR30CPr-X-1" target="MiylKLkYFwcYR30CPr-X-15">
          <mxGeometry relative="1" as="geometry">
            <mxPoint x="356" y="314" as="sourcePoint" />
            <mxPoint x="509" y="314" as="targetPoint" />
          </mxGeometry>
        </mxCell>
        <mxCell id="MiylKLkYFwcYR30CPr-X-15" value="Data flow &amp;amp;/or DI" style="rounded=0;whiteSpace=wrap;html=1;" vertex="1" parent="1">
          <mxGeometry x="402" y="294" width="60" height="40" as="geometry" />
        </mxCell>
      </root>
    </mxGraphModel>
  </diagram>
</mxfile>
